<svg width="165" height="87" viewBox="0 0 165 87" fill="none" xmlns="http://www.w3.org/2000/svg">
<mask id="mask0_267_796" style="mask-type:luminance" maskUnits="userSpaceOnUse" x="1" y="0" width="163" height="87">
<path d="M164 0H1V87H164V0Z" fill="white"/>
</mask>
<g mask="url(#mask0_267_796)">
<mask id="mask1_267_796" style="mask-type:luminance" maskUnits="userSpaceOnUse" x="1" y="0" width="163" height="87">
<path d="M1 87H164V0H1V87Z" fill="#D9042B"/>
</mask>
<g mask="url(#mask1_267_796)">
<path d="M103.837 1.54574C101.364 0.963484 98.8782 0.411316 96.309 0.0361156C96.2126 0.0212681 96.1047 0.0152488 96.0087 0C92.3589 2.69502 88.9971 5.66934 85.9718 8.86517C89.3215 8.37319 92.7433 8.061 96.2368 7.93499C108.434 7.48796 120.033 9.48676 130.502 13.2949C122.95 8.0939 113.838 3.99438 103.837 1.54574Z" fill="#D9042B"/>
<path d="M98.3979 28.396C112.205 21.8807 126.661 19.1287 140.299 19.729C128.558 14.5433 115.081 11.8149 100.835 12.3313C93.812 12.5894 87.0283 13.6219 80.6047 15.3206C77.3991 19.6239 74.7518 24.2515 72.7406 29.1218C75.8383 32.1685 79.2181 35.0368 82.8559 37.6813C87.5987 34.1729 92.791 31.0456 98.3979 28.396Z" fill="#D9042B"/>
<path d="M80.6048 15.3206C75.2625 16.731 70.1597 18.6035 65.3572 20.8843C70.2195 27.0785 76.0788 32.7595 82.8505 37.6813H82.8561C79.2182 35.034 75.8385 32.1685 72.7404 29.1223C74.7516 24.2543 77.3993 19.6267 80.6048 15.3206Z" fill="#D9042B"/>
<path d="M82.8621 37.6843C79.2243 35.0435 75.8381 32.1682 72.7405 29.1221C69.8652 36.0788 68.2987 43.5302 68.2747 51.2614C72.4885 46.3123 77.3753 41.7509 82.8621 37.6843Z" fill="#D9042B"/>
<path d="M151.525 79.7377C151.356 79.7413 151.189 79.7469 151.015 79.7469C144.009 79.7469 138.931 75.2634 138.931 69.0871V68.9491C138.931 63.0403 144.021 58.4126 150.516 58.4126C150.865 58.4126 151.201 58.4242 151.525 58.4427V51.3448C151.224 51.3328 150.913 51.3328 150.6 51.3328C137.874 51.3328 128.269 58.9588 128.269 69.0871V69.2164C128.269 79.096 138.006 86.8355 150.438 86.8355C150.816 86.8355 151.165 86.8263 151.525 86.8171V79.7377Z" fill="#D9042B"/>
<path d="M22.8586 64.8644C15.3486 63.2626 14.2923 62.4941 14.2923 60.1205V60.0125C14.2923 58.2625 16.2191 56.8701 19.8779 56.8701C21.7445 56.8701 24.1823 57.3777 25.8933 58.0109V50.4415C24.3023 50.1658 21.8593 49.8503 20.0043 49.8503C11.1256 49.8503 4.80112 54.1867 4.80112 60.7445V60.8436C4.80112 68.0129 10.4409 70.0237 19.1967 71.8813C26.4576 73.4299 27.1419 74.462 27.1419 76.4756V76.5779C27.1419 78.6935 24.7823 79.9812 20.8716 79.9812C15.9069 79.9812 12.617 78.2797 8.70907 75.596L3.05725 81.2204C8.2712 85.0883 14.1064 87.0005 20.6853 87.0005C30.0593 87.0005 36.6387 82.976 36.6387 75.8038V75.7011C36.6387 69.4049 31.668 66.7738 22.8586 64.8644Z" fill="#D9042B"/>
<path d="M52.006 55.0212C42.2576 55.0212 35.4495 61.9836 35.4495 70.4317V70.5397C35.4495 79.5991 42.8817 85.8415 52.9424 85.8415C53.2309 85.8415 54.1673 85.803 54.4555 85.7965V79.0474C54.2154 79.0565 53.3148 79.1015 53.0631 79.1015C48.8129 79.1015 45.8167 77.118 44.8748 73.3033H67.9801C68.0343 72.5261 68.1002 72.0309 68.1002 71.1999V71.0947C68.1002 62.6978 63.1841 55.0212 52.006 55.0212ZM44.7548 68.0606C45.5045 64.2492 48.0684 61.7584 52.006 61.7584C55.9983 61.7584 58.5014 64.3006 59.0657 68.0606H44.7548Z" fill="#D9042B"/>
<path d="M98.23 69.621C98.23 61.6113 93.3316 55.3601 82.9703 55.3601C72.5966 55.3601 67.6981 61.6113 67.6981 69.621V85.2959H77.2977V69.0423C77.4714 66.0769 78.6357 62.5752 82.9703 62.5752C87.2921 62.5752 88.5531 66.0769 88.7213 69.0423V85.2959H98.23V69.621Z" fill="#D9042B"/>
<path d="M119.672 74.7607C118.845 79.089 114.377 79.7374 113.364 79.7908C106.137 80.1716 105.88 75.231 108.31 73.7258C111.576 71.7017 119.701 72.8398 119.701 72.8398C119.701 73.1327 119.778 73.8699 119.672 74.7607ZM113.839 55.1897C113.418 55.1897 111.965 55.1953 111.568 55.2074V62.3711C113.418 62.3888 115.951 62.7005 117.079 63.2952C118.737 64.168 119.598 65.6387 119.639 67.6307C117.377 67.3654 114.814 67.1849 112.59 67.1279C103.524 66.8952 99.0412 69.8927 98.1404 74.6905C98.123 74.78 98.1066 74.871 98.0912 74.9626C98.0864 74.9934 98.0816 75.0243 98.0767 75.0557C98.0063 75.514 97.9658 75.9951 97.9658 76.5055V76.6138C97.9658 82.4778 103.152 85.6796 109.456 85.6796C114.084 85.6796 117.272 84.1824 119.576 81.9196V85.3317H128.761V67.9469C128.761 59.9337 124.199 55.1897 113.839 55.1897Z" fill="#D9042B"/>
</g>
</g>
</svg>
