<svg width="1728" height="273" viewBox="0 0 1728 273" fill="none" xmlns="http://www.w3.org/2000/svg">
<g clip-path="url(#clip0_350_1629)">
<path d="M327.904 121.25H249.096L288.5 52.999L327.904 121.25Z" stroke="#F2780C"/>
<path d="M656.904 121.25H578.096L617.5 52.999L656.904 121.25Z" stroke="#F2780C"/>
<path d="M980.904 143.25H902.096L941.5 74.999L980.904 143.25Z" stroke="#F2780C"/>
<path d="M1307.9 143.25H1229.1L1268.5 74.999L1307.9 143.25Z" stroke="#F2780C"/>
<path d="M1631.9 143.25H1553.1L1592.5 74.999L1631.9 143.25Z" stroke="#F2780C"/>
<path d="M216.904 125.25H138.096L177.5 56.999L216.904 125.25Z" stroke="#F2780C"/>
<path d="M545.904 125.25H467.096L506.5 56.999L545.904 125.25Z" stroke="#F2780C"/>
<path d="M869.904 147.25H791.096L830.5 78.999L869.904 147.25Z" stroke="#F2780C"/>
<path d="M1196.9 147.25H1118.1L1157.5 78.999L1196.9 147.25Z" stroke="#F2780C"/>
<path d="M1520.9 147.25H1442.1L1481.5 78.999L1520.9 147.25Z" stroke="#F2780C"/>
<path d="M119.904 143.25H41.0957L80.5 74.999L119.904 143.25Z" stroke="#F2780C"/>
<path d="M448.904 143.25H370.096L409.5 74.999L448.904 143.25Z" stroke="#F2780C"/>
<path d="M772.904 165.25H694.096L733.5 96.999L772.904 165.25Z" stroke="#F2780C"/>
<path d="M1099.9 165.25H1021.1L1060.5 96.999L1099.9 165.25Z" stroke="#F2780C"/>
<path d="M1423.9 165.25H1345.1L1384.5 96.999L1423.9 165.25Z" stroke="#F2780C"/>
<path d="M1752.9 165.25H1674.1L1713.5 96.999L1752.9 165.25Z" stroke="#F2780C"/>
<path d="M206.405 102.054L215.404 23.7614L278.709 70.7016L206.405 102.054Z" stroke="#D9042B"/>
<path d="M535.405 102.054L544.404 23.7614L607.709 70.7016L535.405 102.054Z" stroke="#D9042B"/>
<path d="M859.405 124.054L868.404 45.7614L931.709 92.7016L859.405 124.054Z" stroke="#D9042B"/>
<path d="M1186.4 124.054L1195.4 45.7614L1258.71 92.7016L1186.4 124.054Z" stroke="#D9042B"/>
<path d="M1510.4 124.054L1519.4 45.7614L1582.71 92.7016L1510.4 124.054Z" stroke="#D9042B"/>
<path d="M79.4049 211.054L88.4042 132.761L151.709 179.702L79.4049 211.054Z" stroke="#D9042B"/>
<path d="M408.405 211.054L417.404 132.761L480.709 179.702L408.405 211.054Z" stroke="#D9042B"/>
<path d="M732.405 233.054L741.404 154.761L804.709 201.702L732.405 233.054Z" stroke="#D9042B"/>
<path d="M1059.4 233.054L1068.4 154.761L1131.71 201.702L1059.4 233.054Z" stroke="#D9042B"/>
<path d="M1383.4 233.054L1392.4 154.761L1455.71 201.702L1383.4 233.054Z" stroke="#D9042B"/>
<path d="M1712.4 233.054L1721.4 154.761L1784.71 201.702L1712.4 233.054Z" stroke="#D9042B"/>
<path d="M203.405 270.054L212.404 191.761L275.709 238.702L203.405 270.054Z" stroke="#D9042B"/>
<path d="M532.405 270.054L541.404 191.761L604.709 238.702L532.405 270.054Z" stroke="#D9042B"/>
<path d="M856.405 292.054L865.404 213.761L928.709 260.702L856.405 292.054Z" stroke="#D9042B"/>
<path d="M1183.4 292.054L1192.4 213.761L1255.71 260.702L1183.4 292.054Z" stroke="#D9042B"/>
<path d="M1507.4 292.054L1516.4 213.761L1579.71 260.702L1507.4 292.054Z" stroke="#D9042B"/>
<path d="M9.40488 110.054L18.4042 31.7614L81.7091 78.7016L9.40488 110.054Z" stroke="#D9042B"/>
<path d="M338.405 110.054L347.404 31.7614L410.709 78.7016L338.405 110.054Z" stroke="#D9042B"/>
<path d="M662.405 132.054L671.404 53.7614L734.709 100.702L662.405 132.054Z" stroke="#D9042B"/>
<path d="M989.405 132.054L998.404 53.7614L1061.71 100.702L989.405 132.054Z" stroke="#D9042B"/>
<path d="M1313.4 132.054L1322.4 53.7614L1385.71 100.702L1313.4 132.054Z" stroke="#D9042B"/>
<path d="M1642.4 132.054L1651.4 53.7614L1714.71 100.702L1642.4 132.054Z" stroke="#D9042B"/>
<path d="M326.326 266.642L261.258 222.179L332.299 188.06L326.326 266.642Z" stroke="#F2780C"/>
<path d="M655.326 266.642L590.258 222.179L661.299 188.06L655.326 266.642Z" stroke="#F2780C"/>
<path d="M979.326 288.642L914.258 244.179L985.299 210.06L979.326 288.642Z" stroke="#F2780C"/>
<path d="M1306.33 288.642L1241.26 244.179L1312.3 210.06L1306.33 288.642Z" stroke="#F2780C"/>
<path d="M1630.33 288.642L1565.26 244.179L1636.3 210.06L1630.33 288.642Z" stroke="#F2780C"/>
<path d="M118.326 288.642L53.2581 244.179L124.299 210.06L118.326 288.642Z" stroke="#F2780C"/>
<path d="M447.326 288.642L382.258 244.179L453.299 210.06L447.326 288.642Z" stroke="#F2780C"/>
<path d="M771.326 310.642L706.258 266.179L777.299 232.06L771.326 310.642Z" stroke="#F2780C"/>
<path d="M1098.33 310.642L1033.26 266.179L1104.3 232.06L1098.33 310.642Z" stroke="#F2780C"/>
<path d="M1422.33 310.642L1357.26 266.179L1428.3 232.06L1422.33 310.642Z" stroke="#F2780C"/>
<path d="M1751.33 310.642L1686.26 266.179L1757.3 232.06L1751.33 310.642Z" stroke="#F2780C"/>
<path d="M60.5968 68.4787L112.199 8.91373L137.983 83.3857L60.5968 68.4787Z" stroke="#D9042B"/>
<path d="M389.597 68.4787L441.199 8.91373L466.983 83.3857L389.597 68.4787Z" stroke="#D9042B"/>
<path d="M713.597 90.4787L765.199 30.9137L790.983 105.386L713.597 90.4787Z" stroke="#D9042B"/>
<path d="M1040.6 90.4787L1092.2 30.9137L1117.98 105.386L1040.6 90.4787Z" stroke="#D9042B"/>
<path d="M1364.6 90.4787L1416.2 30.9137L1441.98 105.386L1364.6 90.4787Z" stroke="#D9042B"/>
<path d="M1693.6 90.4787L1745.2 30.9137L1770.98 105.386L1693.6 90.4787Z" stroke="#D9042B"/>
<path d="M290.326 198.642L225.258 154.179L296.299 120.06L290.326 198.642Z" stroke="#A2CA02"/>
<path d="M619.326 198.642L554.258 154.179L625.299 120.06L619.326 198.642Z" stroke="#A2CA02"/>
<path d="M943.326 220.642L878.258 176.179L949.299 142.06L943.326 220.642Z" stroke="#A2CA02"/>
<path d="M1270.33 220.642L1205.26 176.179L1276.3 142.06L1270.33 220.642Z" stroke="#A2CA02"/>
<path d="M1594.33 220.642L1529.26 176.179L1600.3 142.06L1594.33 220.642Z" stroke="#A2CA02"/>
<path d="M179.326 202.642L114.258 158.179L185.299 124.06L179.326 202.642Z" stroke="#A2CA02"/>
<path d="M508.326 202.642L443.258 158.179L514.299 124.06L508.326 202.642Z" stroke="#A2CA02"/>
<path d="M832.326 224.642L767.258 180.179L838.299 146.06L832.326 224.642Z" stroke="#A2CA02"/>
<path d="M1159.33 224.642L1094.26 180.179L1165.3 146.06L1159.33 224.642Z" stroke="#A2CA02"/>
<path d="M1483.33 224.642L1418.26 180.179L1489.3 146.06L1483.33 224.642Z" stroke="#A2CA02"/>
<path d="M132.263 40.4792L183.865 -19.0858L209.649 55.3862L132.263 40.4792Z" stroke="#F2780C"/>
<path d="M461.263 40.4792L512.865 -19.0858L538.649 55.3862L461.263 40.4792Z" stroke="#F2780C"/>
<path d="M785.263 62.4792L836.865 2.91422L862.649 77.3862L785.263 62.4792Z" stroke="#F2780C"/>
<path d="M1112.26 62.4792L1163.87 2.91422L1189.65 77.3862L1112.26 62.4792Z" stroke="#F2780C"/>
<path d="M1436.26 62.4792L1487.87 2.91422L1513.65 77.3862L1436.26 62.4792Z" stroke="#F2780C"/>
<path d="M326.326 65.6423L261.258 21.1792L332.299 -12.9403L326.326 65.6423Z" stroke="#A2CA02"/>
<path d="M655.326 65.6423L590.258 21.1792L661.299 -12.9403L655.326 65.6423Z" stroke="#A2CA02"/>
<path d="M979.326 87.6423L914.258 43.1792L985.299 9.05967L979.326 87.6423Z" stroke="#A2CA02"/>
<path d="M1306.33 87.6423L1241.26 43.1792L1312.3 9.05967L1306.33 87.6423Z" stroke="#A2CA02"/>
<path d="M1630.33 87.6423L1565.26 43.1792L1636.3 9.05967L1630.33 87.6423Z" stroke="#A2CA02"/>
<path d="M254.447 211.108L224.95 190.952L255.437 177.998L254.447 211.108Z" stroke="#A2CA02"/>
<path d="M583.447 211.108L553.95 190.952L584.437 177.998L583.447 211.108Z" stroke="#A2CA02"/>
<path d="M907.447 233.108L877.95 212.952L908.437 199.998L907.447 233.108Z" stroke="#A2CA02"/>
<path d="M1234.45 233.108L1204.95 212.952L1235.44 199.998L1234.45 233.108Z" stroke="#A2CA02"/>
<path d="M1558.45 233.108L1528.95 212.952L1559.44 199.998L1558.45 233.108Z" stroke="#A2CA02"/>
<path d="M46.4469 233.108L16.9503 212.952L47.4366 199.998L46.4469 233.108Z" stroke="#A2CA02"/>
<path d="M375.447 233.108L345.95 212.952L376.437 199.998L375.447 233.108Z" stroke="#A2CA02"/>
<path d="M699.447 255.108L669.95 234.952L700.437 221.998L699.447 255.108Z" stroke="#A2CA02"/>
<path d="M1026.45 255.108L996.95 234.952L1027.44 221.998L1026.45 255.108Z" stroke="#A2CA02"/>
<path d="M1350.45 255.108L1320.95 234.952L1351.44 221.998L1350.45 255.108Z" stroke="#A2CA02"/>
<path d="M1679.45 255.108L1649.95 234.952L1680.44 221.998L1679.45 255.108Z" stroke="#A2CA02"/>
<path d="M1506.98 11.4115L1530.37 -15.5905L1539.76 16.1756L1506.98 11.4115Z" stroke="#D9042B"/>
</g>
<defs>
<clipPath id="clip0_350_1629">
<rect width="1728" height="273" fill="white"/>
</clipPath>
</defs>
</svg>
