<svg width="1728" height="205" viewBox="0 0 1728 205" fill="none" xmlns="http://www.w3.org/2000/svg">
<g clip-path="url(#clip0_333_2616)">
<path d="M-10.918 147.5L67.918 147.5L28.5 217.975L-10.918 147.5Z" stroke="#A2CA02"/>
<path d="M111.544 133.759L114.87 212.525L42.7944 176.115L111.544 133.759Z" stroke="#A2CA02"/>
<path d="M30.0803 85.9407L97.0626 127.516L26.4054 166.607L30.0803 85.9407Z" stroke="#D9042B"/>
<path d="M174.778 172.123L136.067 240.8L94.0285 171.855L174.778 172.123Z" stroke="#D9042B"/>
<path d="M21.4268 -19.5847L48.1558 26.9051L-5.44445 26.794L21.4268 -19.5847Z" stroke="#D9042B"/>
<path d="M83.4268 75.4153L110.156 121.905L56.5556 121.794L83.4268 75.4153Z" stroke="#D9042B"/>
<path d="M279.845 159.025L234.524 187.692L232.373 134.134L279.845 159.025Z" stroke="#D9042B"/>
<path d="M20.7178 20.8441L46.1465 36.6274L19.9149 50.5147L20.7178 20.8441Z" stroke="#F2A35E"/>
<path d="M239.422 160.022L224.726 186.094L209.744 160.472L239.422 160.022Z" stroke="#F2A35E"/>
<path d="M-3.91972 42.9407L63.0626 84.5156L-7.59458 123.607L-3.91972 42.9407Z" stroke="#F2A35E"/>
<path d="M216.305 136.339L177.594 205.016L135.556 136.071L216.305 136.339Z" stroke="#F2A35E"/>
</g>
<defs>
<clipPath id="clip0_333_2616">
<rect width="1728" height="205" fill="white" transform="translate(1728 205) rotate(-180)"/>
</clipPath>
</defs>
</svg>
